<svg id="Layer_5" enable-background="new 0 0 64 64" height="512" viewBox="0 0 64 64" width="512" xmlns="http://www.w3.org/2000/svg"><path d="m63 14v-.845c0-.895-.168-1.769-.5-2.6l-3.823-9.555h-53.354l-3.823 9.556c-.332.83-.5 1.705-.5 2.599v.845c0 2.372 1.189 4.47 3 5.736v11.406c-1.721.447-3 2-3 3.858 0 2.206 1.794 4 4 4v-2c-1.103 0-2-.897-2-2s.897-2 2-2 2 .897 2 2v12 3c0 1.302.839 2.402 2 2.816v8.184h-8v2h30 2 30v-2h-8v-8.184c1.161-.414 2-1.514 2-2.816v-3-12c0-1.103.897-2 2-2s2 .897 2 2-.897 2-2 2v2c2.206 0 4-1.794 4-4 0-1.858-1.279-3.411-3-3.858v-11.406c1.811-1.266 3-3.363 3-5.736zm-2 0c0 2.757-2.243 5-5 5s-5-2.243-5-5v-1h9.985c.002.052.015.103.015.155zm-12 0c0 2.757-2.243 5-5 5s-5-2.243-5-5v-1h10zm-12 0c0 2.757-2.243 5-5 5s-5-2.243-5-5v-1h10zm-12 0c0 2.757-2.243 5-5 5s-5-2.243-5-5v-1h10zm13.82-3-1.6-8h9.036l2.4 8zm-2.039 0h-9.561l1.6-8h6.361zm-11.601 0h-9.836l2.4-8h9.036zm35.343 0h-9.789c-.012-.043-.016-.088-.029-.13l-2.361-7.87h8.979zm-53.846-8h8.979l-2.361 7.869c-.013.043-.017.088-.029.131h-9.789zm-3.677 11v-.845c0-.052.013-.103.015-.155h9.985v1c0 2.757-2.243 5-5 5s-5-2.243-5-5zm6 35h11c.552 0 1 .449 1 1v1h-11c-.552 0-1-.449-1-1zm10 8h-8v-4h8zm-8 2h8v2h-8zm17.444 2c.344-.591.556-1.268.556-2v-9.757c0-2.256-.661-4.41-1.889-6.243h3.889v18zm-10.444-20c-.552 0-1-.449-1-1v-2c0-.551.448-1 1-1h28c.552 0 1 .449 1 1v2c0 .551-.448 1-1 1zm15 2h3.889c-1.228 1.833-1.889 3.987-1.889 6.243v9.757c0 .732.212 1.409.556 2h-2.556zm20 10v4h-8v-4zm-8 8v-2h8v2zm9-10h-11v-1c0-.551.448-1 1-1h11v1c0 .551-.448 1-1 1zm4-19.858c-1.721.447-3 2-3 3.858v12h-11c-1.654 0-3 1.346-3 3v3h2v6 2h-.556c.344-.591.556-1.268.556-2 0-2.206-1.794-4-4-4v2c1.103 0 2 .897 2 2s-.897 2-2 2-2-.897-2-2v-9.757c0-2.336.87-4.534 2.441-6.243h6.559c1.654 0 3-1.346 3-3v-2c0-1.654-1.346-3-3-3h-28c-1.654 0-3 1.346-3 3v2c0 1.654 1.346 3 3 3h6.559c1.571 1.709 2.441 3.907 2.441 6.243v9.757c0 1.103-.897 2-2 2s-2-.897-2-2 .897-2 2-2v-2c-2.206 0-4 1.794-4 4 0 .732.212 1.409.556 2h-.556v-2-6h2v-3c0-1.654-1.346-3-3-3h-11v-12c0-1.858-1.279-3.411-3-3.858v-10.437c.634.19 1.305.295 2 .295 2.548 0 4.775-1.373 6-3.413 1.225 2.04 3.452 3.413 6 3.413s4.775-1.373 6-3.413c1.225 2.04 3.452 3.413 6 3.413s4.775-1.373 6-3.413c1.225 2.04 3.452 3.413 6 3.413s4.775-1.373 6-3.413c1.225 2.04 3.452 3.413 6 3.413.695 0 1.366-.105 2-.295z"/><path d="m51 23h-8c-1.654 0-3 1.346-3 3v4c0 1.654 1.346 3 3 3h8c1.654 0 3-1.346 3-3v-4c0-1.654-1.346-3-3-3zm1 7c0 .551-.448 1-1 1h-8c-.552 0-1-.449-1-1v-4c0-.551.448-1 1-1h8c.552 0 1 .449 1 1z"/><path d="m21 23h-8c-1.654 0-3 1.346-3 3v4c0 1.654 1.346 3 3 3h8c1.654 0 3-1.346 3-3v-4c0-1.654-1.346-3-3-3zm1 7c0 .551-.448 1-1 1h-8c-.552 0-1-.449-1-1v-4c0-.551.448-1 1-1h8c.552 0 1 .449 1 1z"/></svg>