<svg height="512pt" viewBox="-64 0 511 512" width="512pt" xmlns="http://www.w3.org/2000/svg"><path d="m344.742188 32.0625h-120.824219v-.515625c0-17.394531-14.152344-31.546875-31.546875-31.546875-17.394532 0-31.546875 14.152344-31.546875 31.546875v.515625h-120.824219c-21.78125 0-39.5 17.722656-39.5 39.5v400.9375c0 21.78125 17.71875 39.5 39.5 39.5h304.742188c21.78125 0 39.5-17.71875 39.5-39.5v-400.9375c0-21.777344-17.71875-39.5-39.5-39.5zm-168.917969-.515625c0-9.121094 7.421875-16.546875 16.546875-16.546875s16.546875 7.425781 16.546875 16.546875v.515625h-33.097657v-.515625zm73.175781 15.515625v24.597656c0 4.6875-3.8125 8.5-8.5 8.5h-96.257812c-4.6875 0-8.5-3.8125-8.5-8.5v-24.597656zm120.242188 425.4375c0 13.507812-10.992188 24.5-24.5 24.5h-304.742188c-13.507812 0-24.5-10.992188-24.5-24.5v-400.9375c0-13.507812 10.992188-24.5 24.5-24.5h80.742188v24.597656c0 12.957032 10.542968 23.5 23.5 23.5h96.257812c12.957031 0 23.5-10.542968 23.5-23.5v-24.597656h80.742188c13.507812 0 24.5 10.992188 24.5 24.5zm0 0"/><path d="m40.0625 415.808594c4.144531 0 7.5-3.355469 7.5-7.5v-329.179688h48.617188c4.140624 0 7.5-3.355468 7.5-7.5 0-4.140625-3.359376-7.5-7.5-7.5h-56.117188c-4.140625 0-7.5 3.359375-7.5 7.5v336.679688c0 4.140625 3.359375 7.5 7.5 7.5zm0 0"/><path d="m344.679688 64.128906h-56.113282c-4.140625 0-7.5 3.359375-7.5 7.5 0 4.144532 3.359375 7.5 7.5 7.5h48.613282v369.773438h-289.617188v-8.535156c0-4.140626-3.355469-7.5-7.5-7.5-4.140625 0-7.5 3.359374-7.5 7.5v16.035156c0 4.144531 3.359375 7.5 7.5 7.5h304.613281c4.144531 0 7.5-3.355469 7.5-7.5v-384.773438c.003907-4.140625-3.355469-7.5-7.496093-7.5zm0 0"/><path d="m82.929688 128.460938c-3.382813.796874-5.777344 3.820312-5.777344 7.296874v48.097657c0 4.140625 3.359375 7.5 7.5 7.5 4.144531 0 7.5-3.359375 7.5-7.5v-16.328125l9.839844 19.683594c1.273437 2.539062 3.867187 4.144531 6.710937 4.144531 2.839844 0 5.4375-1.601563 6.707031-4.144531l9.839844-19.683594v16.328125c0 4.140625 3.359375 7.5 7.5 7.5s7.5-3.359375 7.5-7.5v-48.097657c0-3.476562-2.390625-6.5-5.777344-7.296874-3.382812-.800782-6.875.832031-8.429687 3.941406l-17.339844 34.683594-17.339844-34.683594c-1.554687-3.109375-5.046875-4.742188-8.433593-3.941406zm0 0"/><path d="m156.800781 191.355469h32.0625c4.144531 0 7.5-3.359375 7.5-7.5 0-4.144531-3.355469-7.5-7.5-7.5h-24.5625v-9.050781h12.039063c4.140625 0 7.5-3.355469 7.5-7.5 0-4.140626-3.359375-7.5-7.5-7.5h-12.039063v-9.046876h24.5625c4.144531 0 7.5-3.359374 7.5-7.5 0-4.144531-3.355469-7.5-7.5-7.5h-32.0625c-4.144531 0-7.5 3.355469-7.5 7.5v48.097657c0 4.140625 3.355469 7.5 7.5 7.5zm0 0"/><path d="m212.914062 191.355469c4.140626 0 7.5-3.359375 7.5-7.5v-23.328125l18.324219 27.488281c1.414063 2.125 3.777344 3.339844 6.238281 3.339844.722657 0 1.457032-.105469 2.175782-.324219 3.160156-.957031 5.324218-3.871094 5.324218-7.175781v-48.097657c0-4.144531-3.355468-7.5-7.5-7.5-4.140624 0-7.5 3.355469-7.5 7.5v23.324219l-18.324218-27.484375c-1.832032-2.75-5.25-3.976562-8.414063-3.019531-3.160156.957031-5.324219 3.875-5.324219 7.179687v48.097657c0 4.140625 3.355469 7.5 7.5 7.5zm0 0"/><path d="m285.058594 191.355469c12.976562 0 23.53125-10.558594 23.53125-23.535157v-32.0625c0-4.140624-3.359375-7.5-7.5-7.5s-7.5 3.359376-7.5 7.5v32.0625c0 4.707032-3.828125 8.535157-8.53125 8.535157s-8.53125-3.828125-8.53125-8.535157v-32.0625c0-4.140624-3.359375-7.5-7.5-7.5-4.144532 0-7.5 3.359376-7.5 7.5v32.0625c-.003906 12.976563 10.554687 23.535157 23.53125 23.535157zm0 0"/><path d="m80.660156 223.9375c0 4.140625 3.359375 7.5 7.5 7.5h208.421875c4.140625 0 7.5-3.359375 7.5-7.5 0-4.144531-3.359375-7.5-7.5-7.5h-208.421875c-4.140625 0-7.5 3.355469-7.5 7.5zm0 0"/><path d="m296.578125 256.515625h-16.03125c-4.140625 0-7.5 3.359375-7.5 7.5s3.359375 7.5 7.5 7.5h16.03125c4.144531 0 7.5-3.359375 7.5-7.5s-3.355469-7.5-7.5-7.5zm0 0"/><path d="m296.578125 336.679688h-16.03125c-4.140625 0-7.5 3.355468-7.5 7.5 0 4.140624 3.359375 7.5 7.5 7.5h16.03125c4.144531 0 7.5-3.359376 7.5-7.5 0-4.144532-3.355469-7.5-7.5-7.5zm0 0"/><path d="m296.578125 296.597656h-16.03125c-4.140625 0-7.5 3.355469-7.5 7.5 0 4.140625 3.359375 7.5 7.5 7.5h16.03125c4.144531 0 7.5-3.359375 7.5-7.5 0-4.144531-3.355469-7.5-7.5-7.5zm0 0"/><path d="m296.578125 376.757812h-16.03125c-4.140625 0-7.5 3.359376-7.5 7.5 0 4.144532 3.359375 7.5 7.5 7.5h16.03125c4.144531 0 7.5-3.355468 7.5-7.5 0-4.140624-3.355469-7.5-7.5-7.5zm0 0"/><path d="m248.484375 256.515625h-160.324219c-4.140625 0-7.5 3.359375-7.5 7.5s3.359375 7.5 7.5 7.5h160.324219c4.140625 0 7.5-3.359375 7.5-7.5s-3.359375-7.5-7.5-7.5zm0 0"/><path d="m255.984375 344.179688c0-4.144532-3.359375-7.5-7.5-7.5h-160.324219c-4.140625 0-7.5 3.355468-7.5 7.5 0 4.140624 3.359375 7.5 7.5 7.5h160.324219c4.140625 0 7.5-3.359376 7.5-7.5zm0 0"/><path d="m88.160156 311.597656h112.226563c4.144531 0 7.5-3.359375 7.5-7.5 0-4.144531-3.355469-7.5-7.5-7.5h-112.226563c-4.140625 0-7.5 3.355469-7.5 7.5 0 4.140625 3.359375 7.5 7.5 7.5zm0 0"/><path d="m88.160156 376.757812c-4.140625 0-7.5 3.359376-7.5 7.5 0 4.144532 3.359375 7.5 7.5 7.5h112.226563c4.144531 0 7.5-3.355468 7.5-7.5 0-4.140624-3.355469-7.5-7.5-7.5zm0 0"/></svg>